<svg xmlns="http://www.w3.org/2000/svg" enable-background="new -360.158 -803.279 3000 3000" viewBox="-360.158 -803.279 3000 3000" id="cash-on-delivery-payment"><path fill="#DCF4E6" d="M2224.223,1739.007H55.46c22.889-152.411,104.987-279.956,216.341-346.089
		c41.213-24.74,86.583-40.983,134.285-46.932c29.482-121.626,80.583-232.016,147.899-324.747
		c129.596-178.38,319.487-290.846,531.079-290.846c291.315,0,541.356,213.319,649.947,518.141c13.718-1.7,27.577-2.991,41.603-2.991
		c205.183,0,371.346,201.578,371.346,450.057c0,2.518,0,4.627-0.164,6.799C2175.271,1709.387,2201.006,1722.01,2224.223,1739.007z"></path><path fill="#93E5B6" d="M1391.487,1739.007h793.403c-20.941-37.791-65.439-26.074-113.344-27.083
		c-8.954-28.252-33.765-27.659-87.214-18.958c67.713-61.751,46.587-122.417-71.503-82.875
		c134.883-183.627-74.213-225.594-105.09-229.267c-38.908-4.64-217.763,23.96-122.965,215.179
		c-114.841-47.664-146.259,8.674-59.588,107.802C1542.387,1707.686,1443.177,1725.873,1391.487,1739.007z"></path><path fill="#93E5B6" d="M651.535,1739.007h1385.774c-89.894-20.881-276.155-45.608-359.947-47.371
		c-15.662-49.417-59.06-48.38-152.55-33.162c118.44-108.011,81.487-214.127-125.07-144.962
		c235.931-321.191-129.809-394.597-183.819-401.021c-68.055-8.116-380.899,41.91-215.083,376.38
		c-200.874-83.37-255.828,15.174-104.228,188.562C751.785,1684.222,700.396,1701.216,651.535,1739.007z"></path><path fill="#11405C" d="M1618.813 115.08c0 0-77.156-142.499 15.599-178.368 0 0 10.2-91.238 87.73-77.625 77.529 13.614 73.032 55.396 73.032 55.396s179.886 7.709 67.136 185.415c0 0-38.485 46.846 60.936 51.72 99.422 4.874-69.742 256.436-202.344 166.498C1588.3 228.177 1618.813 115.08 1618.813 115.08zM1528.939 1723.471c45.243-10.967 136.736-61.696 136.736-61.696s18.744-6.247 27.01 11.355c5.138 10.957 6.751 43.2 7.234 66.006.283 13.388-11.042 20.596-23.931 24.602-63.205 19.639-123.717 28.196-174.093 17.857C1489.852 1779.115 1483.688 1734.434 1528.939 1723.471z"></path><path fill="#D7A28E" d="M1602.097,1177.19c9.635,204.112,24.551,509.391,24.551,509.391s2.171,11.651,28.342,13.418
			c25.432,1.717,22.332-12.169,23.292-12.278c10.471-112.635,68.869-354.877,75.394-519.493L1602.097,1177.19z"></path><path fill="#11405C" d="M1824.129,1732.467c43.595-16.332,128.317-77.704,128.317-77.704s17.856-8.457,28.181,8.021
			c6.419,10.259,11.901,42.073,15.125,64.656c1.892,13.256-8.483,21.775-20.796,27.302c-60.382,27.103-119.424,42.88-170.678,38.679
			C1792.023,1792.41,1780.526,1748.796,1824.129,1732.467z"></path><path fill="#D7A28E" d="M1975.325,1192.706l-158.292-47.645c33.646,198.446,99.657,539.025,99.657,539.025
			s3.557,11.306,29.75,9.91c25.455-1.355,20.705-14.766,21.646-14.99C1965.159,1574.302,1983.591,1347.926,1975.325,1192.706z"></path><path fill="#2F627C" d="M1514.854,1243.676c27.151,65.618,215.423-45.814,325.585-32.94
				c110.162,12.874,194.898,54.179,201.965-11.797c7.067-65.975-54.373-380.233-69.505-454.224
				c-15.132-73.991-66.166-193.51-66.166-193.51l-317.239,28.496C1589.495,579.701,1534.784,1057.627,1514.854,1243.676z"></path><path fill="#11405C" d="M1885.491 933.796c43.739-70.48 27.029 230.007 15.709 222.276S1878.015 945.842 1885.491 933.796zM1855.591 1077.805c6.979 18.99 39.806 84.282 23.752 90.164C1863.289 1173.851 1855.591 1077.805 1855.591 1077.805zM1830.592 721.283c0 0 17.627 62.019 22.096 85.456 4.47 23.436-.979 61.726-3.153 76.897-2.174 15.17-6.755-62.3-12.182-81.288C1831.926 783.36 1830.592 721.283 1830.592 721.283z"></path><path fill="#11405C" d="M2042.391,1198.919c-7.081,66.008-91.771,24.677-201.984,11.839
				c-110.145-12.895-298.388,98.526-325.537,32.949c-0.298-0.686-0.532-1.369-0.765-2.05
				c89.103,19.679,257.49-42.221,290.059-46.698c36.706-5.038,133.03,10.532,150.579-1.837c17.612-12.304-6.342-71.45-8.994-158.039
				c-2.651-86.591,23.629,84.575,65.109,133.491c41.415,48.915-29.995-195.231-48.547-273.055
				c-18.555-77.761-50.311-249.152-77.06-259.239c-26.683-10.084-10.458,28.929-18.531,74.53
				c-8.075,45.66-3.888-37.346-45.675-59.67c-41.725-22.261-118.932,5.52-129.083,7.856c-10.216,2.333-22.62,134.42-22.027,102.458
				c0.527-31.966-21.492-121.55-21.492-121.55s-11.154,60.591-71.703,51.544c7.72-76.068,12.762-111.76,12.762-111.76
				l317.257-28.456c0,0,50.991,119.519,66.109,193.47C1988.053,818.718,2049.47,1132.974,2042.391,1198.919z"></path><path fill="#D7A28E" d="M1581.972,250.153l-75.432,136.813l-79.383-60.129l-27.333,29.704c0,0,128.435,170.883,158.454,164.05
			c30.019-6.834,111.466-236.589,111.466-236.589L1581.972,250.153z"></path><path fill="#91C4F6" d="M1676.57,117.815c0,0-3.44,71.557-5.022,79.055c-1.583,7.5-50.845,102.587-50.845,102.587
			s-59.79-16.996-70.867-39.494c25.457-24.081,82.357-127.491,84.077-130.726c0.069-0.067,0.069-0.067,0.069-0.067L1676.57,117.815z
			"></path><path fill="#549BEC" d="M1654.22,201.608c-12.182,10.989-24.456,21.825-36.297,33.185c-16.818,16.134-37.412,30.184-60.418,34.578
			c19.611,17.653,63.198,30.085,63.198,30.085s49.263-95.086,50.845-102.587c0.354-1.676,0.8-6.561,1.28-13.119
			C1666.794,189.855,1660.627,195.828,1654.22,201.608z"></path><path fill="#91C4F6" d="M1571.97,591.017c0,0-35.506-2.392-40.026-21.896c-4.52-19.503,27.205-51.402,28.56-55.605
			c1.355-4.203,56.835-165.753,35.207-188.596c-21.627-22.843-2.202-55.553,10.004-64.931
			c54.406-41.804,47.345-140.636,70.934-144.376c28.803-4.565,78.329-16.905,117.156-10.894
			c26.628,34.709,182.938,429.705,161.173,464.31C1933.212,603.633,1633.897,626.585,1571.97,591.017z"></path><path fill="#549BEC" d="M1608.168,321.528c-10.977-18.671,68.667,16.952,78.477,0.902c0,0,13.298,33.123,75.315,13.85
			c0,0-7.357,26.803-76.896,19.705C1685.064,355.985,1636.779,370.192,1608.168,321.528z"></path><path fill="#549BEC" d="M1954.948,569.026c-4.816,7.638-23.05,14.654-49.194,20.71c-7.018-2.752-14.243-5.573-20.434-7.982
			c-20.572-7.912,31.856-8.874,25.319-26.833c-6.536-18.027-175.792-40.113-175.792-40.113
			c2.202,15.894-16.857,63.987-29.723,94.055c-58.964,0.069-111.117-5.16-133.134-17.82c0,0-35.502-2.409-40.044-21.948
			c-4.541-19.472,27.177-51.396,28.553-55.593c1.376-4.196,116.942-128.788,145.151-93.08
			c28.553,36.328,179.849,31.371,179.849,31.371l-26.394-73.488c0,0-17.132-11.423-38.392-36.604
			c-21.26-25.113-24.219-113.249-24.219-113.249l84.421,77.472C1925.294,422.751,1966.919,550.036,1954.948,569.026z"></path><path fill="#D7A28E" d="M1750.407,5.554l16.349,97.547l19.643,0.708c0,0-18.417,68.098-61.742,66.463
			c-43.326-1.635-51.244-53.495-51.244-53.495l33.484-6.59l-13.712-60.49L1750.407,5.554z"></path><path fill="#C18C7C" d="M1742.415,33.12c0.757,16.857-28.209,54.285-40.181,56.554l-7.293-32.268
			C1709.872,40.48,1741.796,19.289,1742.415,33.12z"></path><path fill="#D7A28E" d="M1642.437-46.173c0,0,4.298,121.494,37.66,118.321c35.015-3.33,68.372-30.638,74.654-50.118
		c6.28-19.479,4.177-18.332,4.177-18.332s21.928,3.513,19.603-28.594c-1.455-20.083-23.22-6.948-23.22-6.948
		s-41.303-48.675-71.033-45.508C1654.548-74.186,1642.437-46.173,1642.437-46.173z"></path><path fill="#11405C" d="M1647.883-2.123c0 3.672 2.526 6.641 5.622 6.641 3.1 0 5.626-2.97 5.626-6.641 0-3.672-2.526-6.66-5.626-6.66-.868 0-1.686.229-2.427.674 1.101.328 1.923 1.51 1.923 2.917 0 1.658-1.15 3.019-2.561 3.019-1.033 0-1.936-.737-2.327-1.789C1647.964-3.369 1647.883-2.762 1647.883-2.123zM1644.585-26.08c-6.278 1.344-3.898 7.008-1.869 7.086 1.964-.73 20.553 3.46 22.863 5.336C1669.904-13.929 1658.02-28.958 1644.585-26.08zM1705.258-2.123c0 3.672-2.526 6.641-5.622 6.641-3.1 0-5.626-2.97-5.626-6.641 0-3.672 2.525-6.66 5.626-6.66.868 0 1.686.229 2.426.674-1.1.328-1.922 1.51-1.922 2.917 0 1.658 1.15 3.019 2.561 3.019 1.033 0 1.936-.737 2.328-1.789C1705.177-3.369 1705.258-2.762 1705.258-2.123zM1708.555-26.08c6.278 1.344 3.898 7.008 1.869 7.086-1.964-.73-20.552 3.46-22.863 5.336C1683.238-13.929 1695.121-28.958 1708.555-26.08zM1675.455.631c-1.043-1.459-9.503 20.385-5.978 23.911 3.526 3.525 14.715 3.372 13.182.919-1.532-2.452-8.89-1.839-9.043-3.066C1673.463 21.17 1677.754 3.849 1675.455.631zM1768.445-26.661c-3.847 2.57-11.177 11.673-7.223 19.174 0 0 .274-4.861 3.043-7.655l6.68-2.565-6.458-.87L1768.445-26.661z"></path><path fill="#FFF" d="M1683.884,55.433c14.777-2.913,15.3-20.24,11.109-17.982c-22.832,12.298-27.837-3.099-31.632,4.218
		C1661.045,46.132,1671.615,56.414,1683.884,55.433z"></path><path fill="#11405C" d="M1647.583-37.297c0.766-12.127,15.394-23.623,16.775-25.24c-8.943,11.196-6.193,30.313-5.805,34.004
		c10.387,10.405,19.028-22.119,42.72-8.524c25.372,14.56,54.039,5.212,54.039,5.212s11.12-30.632-22.771-46.273
		c-33.89-15.64-87.177-23.59-95.478,30.637C1637.062-47.48,1643.733-42.474,1647.583-37.297z"></path><path fill="#D7A28E" d="M1944.508,271.743c0,0,89.108,138.308,93.048,149.814c3.94,11.505-48.555,21.431-52.042,21.918
		c-3.487,0.487-69.872,18.131-69.872,18.131l-67.461-154.31L1944.508,271.743z"></path><path fill="#91C4F6" d="M1793.8,104.831l67.802,21.715c0,0,97.104,133.861,96.251,150.156
		c-35.756,39.497-102.549,49.502-113.69,44.564c-11.141-4.938-46.717-80.891-47.679-92.84
		C1795.523,216.476,1793.8,104.831,1793.8,104.831z"></path><ellipse cx="1521.315" cy="476.344" fill="#DBA12C" rx="189.709" ry="164.523" transform="rotate(-18.755 1521.585 476.268)"></ellipse><ellipse cx="1509.45" cy="447.702" fill="#F2CD33" rx="189.709" ry="164.523" transform="rotate(-18.755 1509.667 447.616)"></ellipse><path fill="#DBA12C" d="M1482.614,510.02c-12.191-3.835-24.505-12.316-31.633-22.639l14.531-13.329
				c7.775,9.414,16.147,16.432,27.205,18.762c13.299,2.802,21.442-2.206,24.127-12.984c6.57-26.36-50.048-34.296-40.693-71.832
				c4.627-18.565,19.785-29.238,39.006-28.55l5.076-20.37l16.374,3.451l-4.977,19.971c12.702,4.354,20.158,12.444,25.794,21.818
				l-15.409,10.835c-5.883-8.383-11.279-13.515-21.103-15.585c-11.058-2.33-19.202,1.839-21.789,12.219
				c-5.972,23.962,50.896,30.898,40.844,71.23c-4.726,18.963-19.677,30.528-40.83,29.851l-5.126,20.565l-16.374-3.45
				L1482.614,510.02z"></path><path fill="#D7A28E" d="M1411.803,299.754c0,0-3.651-18.863,21.837-14.803c25.49,4.064,26.144,21.337,18.547,24.825
					s-12.212,6.292-24.028-1.601c0,0,6.249,10.662-1.686,15.843c-7.937,5.179-16.863,2.156-16.863,2.156s7.508,8.322,5.116,12.528
					c-2.393,4.206-13.905,8.284-24.714,2.378c0,0,5.073,11.519-9.683,13.831c-9.868,1.546-13.455-0.423-13.455-0.423l-10.359,11.046
					c0,0-11.14-23.581,14.512-34.157c0,0-0.377-17.952,20.276-13.778C1391.303,317.6,1388.439,293.113,1411.803,299.754z"></path><path fill="#C18C7C" d="M1411.908 299.963c-.149.805 3.924 2.009 8.401 4.42 4.53 2.346 7.707 5.04 8.263 4.588.647-.466-2.01-4.41-6.99-6.995C1416.631 299.331 1411.984 299.284 1411.908 299.963zM1390.938 317.158c-.042.395 1.024.85 2.671 1.635 1.655.783 3.915 1.929 6.421 3.239 5.011 2.618 9.148 4.773 9.579 4.143.424-.605-3.112-3.832-8.322-6.557-2.6-1.36-5.14-2.297-7.087-2.656C1392.245 316.595 1390.97 316.806 1390.938 317.158zM1371.027 331.378c.005.414 1.194.709 2.957 1.406 1.77.714 4.132 1.901 6.671 3.44 5.087 3.06 9.052 6.007 9.572 5.437.507-.522-2.756-4.505-8.175-7.774-2.693-1.635-5.457-2.67-7.574-2.963C1372.339 330.642 1371.01 331.044 1371.027 331.378z"></path><g><path fill="#D7A28E" d="M1743.548,376.752c0,0,254.257,1.64,274.829,18.901c20.571,17.261,29.616,39.326,19.121,64.353
			c-10.494,25.028-44.371,26.639-65.86,28.226c-21.489,1.587-235.511-36.756-235.511-36.756L1743.548,376.752z"></path><path fill="#C18C7C" d="M1860.667,379.265c3.659,0.13,113.429-3.488,111.684,8.79
			C1970.605,400.334,1860.667,379.265,1860.667,379.265z"></path><path fill="#D7A28E" d="M1703.294,350.825c-21.353-8.494-43.297-7.027-52.449-5.876c-15.533,1.98-67.452,26.126-67.452,26.126
			s2.04,7.584,4.327,9.829c3.717,3.648,13.422,3.7,23.517,0.673c-6.538,3.363-17.904,10.682-17.904,10.682s4.589,8.008,7.461,9.467
			c3.844,1.953,12.4,1.228,18.7-0.891c-4.373,2.869-12.049,7.29-12.049,7.29s6.159,8.431,9.222,9.446
			c5.826,1.931,15.936-1.063,24.508-4.175c-5.876,3.117-14.609,10.749-14.609,10.749s6.996,6.415,9.755,7.407
			c10.716,3.857,43.141-8.96,43.141-8.96c21.033,25.247,41.916,28.177,56.666,28.883c3.567,0.126,7.421-74.723,7.421-74.723
			S1719.248,357.132,1703.294,350.825z"></path><path fill="#C18C7C" d="M1647.746 368.249c.049.313-2.054.871-5.387 1.934-3.333 1.071-7.905 2.638-12.897 4.568-9.991 3.84-17.968 7.342-18.224 6.826-.257-.499 7.378-4.863 17.487-8.75 5.047-1.951 9.777-3.329 13.265-4.054C1645.483 368.055 1647.71 367.999 1647.746 368.249zM1654.004 387.403c.073.291-1.863 1.039-4.971 2.251-3.406 1.354-7.549 3.001-12.129 4.822-9.466 3.806-17.169 6.881-17.41 6.359-.238-.51 7.114-4.438 16.644-8.27 4.762-1.918 9.175-3.422 12.44-4.294C1651.845 387.398 1653.94 387.142 1654.004 387.403zM1658.087 406.703c.221.524-4.096 2.842-9.641 5.177-5.545 2.335-10.219 3.803-10.44 3.279-.221-.525 4.095-2.842 9.641-5.177C1653.192 407.647 1657.866 406.179 1658.087 406.703z"></path></g><g><path fill="#2F627C" d="M1177.536-197.853c0,0,35.373,66.504,41.839,75.069c0,0,96.539,138.416,116.879,241.384
		c19.955-103.064,113.165-241.481,113.165-241.481c6.395-8.638,41.501-75.289,41.501-75.289
		c29.751-67.712,19.882-120.245,19.882-120.245c-35.35-137.618-164.196-143.748-176.696-144.014v-0.41
		c0,0-140.477,0-176.958,144.836C1157.149-318.002,1147.447-265.446,1177.536-197.853z M1267.199-227.005v-45.1l69.37-65.903
		l65.582,65.396c0,0,0,20.172,0,44.448c0,24.278-43.722,23.119-43.722,23.119l-0.437-42.785h-47.918v42.785
		C1262.301-204.347,1267.199-227.005,1267.199-227.005z M1244.083-298.435c11.703-12.693,77.092-72.224,77.092-72.224
		s16.455-12.692,30.306,0c14.501,13.296,69.248,65.397,69.248,65.397s16.602,14.116-2.026,29.197l-81.942-80.162l-85.319,80.429
		C1251.442-275.798,1232.381-285.717,1244.083-298.435z"></path></g><g><path fill="#2F627C" d="M1115.612,1799.488c43.185,0,75.87-35.132,72.865-78.316L1075.854,103.185
			c-3.006-43.184-40.583-78.32-83.768-78.32H208.321c-43.185,0-75.875,35.136-72.869,78.32l112.622,1617.988
			c3.006,43.184,40.587,78.316,83.772,78.316H1115.612z"></path><path fill="#549BEC" d="M1159.609,1754.577c43.184,0,75.87-35.132,72.864-78.316L1119.851,58.274
			c-3.006-43.184-40.583-78.32-83.767-78.32H252.318c-43.185,0-75.875,35.136-72.869,78.32l112.622,1617.988
			c3.006,43.184,40.588,78.316,83.772,78.316H1159.609z"></path><path fill="#CDEEFF" d="M1155.627,1697.377c11.642,0,20.456-9.473,19.645-21.115L1062.651,58.274
			c-0.811-11.647-10.943-21.12-22.585-21.12H256.3c-11.647,0-20.46,9.473-19.65,21.12l112.622,1617.988
			c0.811,11.642,10.943,21.115,22.59,21.115H1155.627z"></path><path fill="#FFF" d="M507.177 376.971h461.262c13.924 0 25.463 10.796 26.388 24.688l15.805 237.309c1.017 15.263-11.09 28.204-26.388 28.204H522.982c-13.924 0-25.463-10.796-26.388-24.688l-15.805-237.307C479.772 389.911 491.879 376.971 507.177 376.971zM392.161 806.44h461.262c13.924 0 25.463 10.796 26.389 24.688l15.805 237.31c1.017 15.263-11.091 28.203-26.389 28.203H407.967c-13.924 0-25.463-10.796-26.389-24.688l-15.805-237.307C364.756 819.381 376.864 806.44 392.161 806.44z" opacity=".5"></path><path fill="#009444" d="M745.037,1697.377l-40.775-501.881l-141.023-366.4c0,0-89.19-106.355-11.842-225.48
							c0,0,292.815-1.113,320.13,20.073c27.315,21.189,49.409,574.24,49.409,574.24l-50.393,499.449H745.037z"></path><path fill="#097C3A" d="M563.217,829.143l141.093,366.32l40.715,501.902H870.53l34.4-341.046
							c-46.763-22.304-153.724-75.814-149.962-97.019c4.837-27.029,52.676-48.234,63.425-60.981
							c10.884-12.744-70.546-56.804-65.844-58.123c4.837-1.317,50.256-8.46,76.728-30.215
							c26.337-21.865-68.262-13.514-77.937-40.873c-9.541-27.469-8.332-299.626,0-298.416c7.525,1.1,100.377-28.788,139.479-48.126
							c-5.912-54.936-12.497-93.502-19.349-98.886c-27.278-21.204-320.079-20.105-320.079-20.105
							C473.993,722.786,563.217,829.143,563.217,829.143z"></path><path fill="#009444" d="M554.406,1697.377H429.585l64.413-493.255l-81.639-384.049c0,0-42.679-91.78,20.514-218.736
							c0,0,251.351-18.418,276.3,4.64c24.948,23.059-4.91,589.517-4.91,589.517L554.406,1697.377z"></path><path fill="#097C3A" d="M481.746,704.134c0,0-33.715,114.07-32.167,129.119c1.548,15.051,52.121,244.385,81.192,276.947
							c29.157,32.631,139.591,18.847,128.841,31.366c-10.751,12.518-151.805,26.302-121.96,35.092
							c29.931,8.791,86.524-2.531,71.989,18.777c-14.45,21.309-60.464,16.316-60.464,16.316s-87.385,397.346-70.527,407.333
							c10.665,6.329,61.84,4.711,98.394,2.671l-22.62,75.601H429.625l64.334-493.2l-81.622-384.054c0,0-42.66-91.777,20.556-218.788
							c0,0,251.316-18.424,276.259,4.643c8.085,7.455,10.407,71.873,9.891,155.562C652.128,753.644,536.533,736.062,481.746,704.134
							z"></path><path fill="#C18C7C" d="M867.799,191.568l62.115,103.465l288.796,38.321l10.744,60.169c0,0-307.041,15.545-343.708,7.501
							c-36.666-8.044-119.1-78.426-119.1-78.426L867.799,191.568z"></path><path fill="#FFC439" d="M838.297,71.246c0,0,70.421,156.304,91.038,177.732c6.978,7.252-50.312,90.119-104.042,92.304
							c-52.35,2.129-87.895-110.446-87.895-110.446S788.47,94.089,803.705,60.109C815.906,66.189,838.297,71.246,838.297,71.246z"></path><path fill="#009444" d="M899.209,675.994c-33.732,47.774-234.495,29.382-368.46-12.67
						c-36.424-11.387-67.798-24.539-89.663-38.632c-19.844-12.669-31.707-26.169-32.044-39.718
						c-2.526-83.604,87.887-434.997,234.411-539.99c86.737-2.029,160.252,15.125,160.252,15.125s35.036,100.372,63.421,241.728
						c9.048,45.028,17.65,91.562,24.772,136.014C910.07,549.859,918.507,648.484,899.209,675.994z"></path><path fill="#097C3A" d="M746.292 59.599c0 0 6.495 500.285 15.859 639.97C762.151 699.569 807.345 590.054 746.292 59.599zM530.749 663.324c-36.424-11.387-67.798-24.539-89.663-38.632-26.609-110.507 163.162-496.12 163.162-496.12s123.481-13.696 42.489 40.303C572.376 218.455 536.224 599.829 530.749 663.324z"></path><path fill="#FFC439" d="M654.689 555.441c0 0-39.444 66.056-81.695 74.04C572.993 629.482 646.313 658.517 654.689 555.441zM841.911 545.728c0 0 27.951 71.68 68.295 86.555C910.206 632.283 833.088 648.766 841.911 545.728z"></path><g><path fill="#11405C" d="M797.397-169.925c0,0-114.618,26.468-119.371,48.828c-4.752,22.36-5.687,99.932,28.104,99.932
							C739.921-21.165,798.72-143.028,797.397-169.925z"></path><path fill="#DBA12C" d="M833.069-167.491c0,0-22.851-87.849-112.57-58.644c-64.998,21.158-65.019,79.189-56.351,100.777
							c7.758,19.32,11.461,20.689,11.461,20.689s18.402-17.18,49.688-31.031C764.137-152.896,818.639-167.491,833.069-167.491z"></path><path fill="#009444" d="M810.362-176.26c-8.451,1.343-16.787,3.724-25.114,5.666c-7.636,1.781-15.401,3.043-22.977,5.058
							c-15.755,4.191-30.759,11.087-45.004,18.931c-14.656,8.07-28.426,17.559-42.516,26.549c-2.175,1.388-4.259,2.919-6.316,4.493
							c4.834,9.996,7.173,10.893,7.173,10.893s18.402-17.18,49.688-31.031c38.84-17.196,93.343-31.792,107.772-31.792
							c0,0-1.187-4.513-4.042-11.131C822.934-177.252,816.261-177.198,810.362-176.26z"></path><path fill="#D7A28E" d="M841.816-11.328C820.979,16.438,779.305,2.53,779.305,2.53l2.565,51.24c0,0-8.547,28.32-43.242,21.39
							c-34.745-6.979-48.213-29.351-48.213-29.351l15.961-91.882c0,0-1.345-11.814-11.116-12.861
							c-15.154-1.695-22.083-27.815-13.459-39.53c12.163-16.5,25.474-0.548,25.474-0.548s37.037-49.351,63.358-58.173
							c35.741-11.964,68.592,1.744,68.592,1.744s8.075,40.179,10.518,78.911c0.349,5.035,0.549,10.069,0.598,14.955
							C850.838-39.992,848.794-20.65,841.816-11.328z"></path><path fill="#C18C7C" d="M779.305,2.53l-40.04-19.752c0,0,20.641,48.461,28.587,62.04s0,26.428,0,26.428
							s13.596-1.124,16.264-15.033L779.305,2.53z"></path><path fill="#11405C" d="M689.677-95.062c4.569,3.7,12.788,16.073,6.912,25.105c0,0,0.218-6.183-2.961-10.042l-8.156-4.023
							l8.275-0.351L689.677-95.062z"></path><path fill="#FFC439" d="M725.296-135.7c0,0,37.031-13.551,56.129-15.288c19.099-1.736,57.779-4.468,57.779-4.468
							s48.614-24.308,37.329-32.989c-11.286-8.681-63.214-6.591-84.916,2.09C769.914-177.672,725.296-135.7,725.296-135.7z"></path><path fill="#097C3A" d="M749.719,89.936c0,0,45.037-15.653,43.121-25.692c-1.916-10.038-8.725-31.011-8.725-31.011
							s-11.128,14.356-40.252,11.585s-54.415-21.165-54.415-21.165L678.91,51.052C678.91,51.052,713.805,87.624,749.719,89.936z"></path><path fill="#C18C7C" d="M763.438-74.371c-.644 4.416 4.25 8.784 10.933 9.758 6.68.973 12.617-1.817 13.261-6.233.644-4.415-4.25-8.784-10.932-9.757C770.019-81.578 764.081-78.788 763.438-74.371zM850.34-61.576c-1.894.448-4.038.548-6.28.199-6.68-.947-11.565-5.334-10.917-9.77.648-4.387 6.579-7.178 13.259-6.232 1.196.199 2.293.449 3.34.848C850.091-71.496 850.29-66.461 850.34-61.576z"></path><path fill="#11405C" d="M833.069-35.169c0,0-15.69-1.053-31.239-0.685C801.83-35.854,824.141-5.327,833.069-35.169z"></path><path fill="#FFF" d="M833.069-35.169c0,0-0.821,4.117-1.534,4.354c-0.713,0.237-21.451,0.091-27.42-2.318l-2.284-2.72
								C801.83-35.854,816.838-37.744,833.069-35.169z"></path><g><path fill="#11405C" d="M822.348-117.021c0 0 28.942 2.441 32.218 0 3.276-2.44-4.914-9.627-18.02-8.135C823.441-123.665 819.072-117.563 822.348-117.021zM846.783-101.008c0 4.69-3.224 8.478-7.181 8.478-3.956 0-7.18-3.788-7.18-8.478 0-4.689 3.225-8.498 7.18-8.498 1.11 0 2.156.292 3.099.857-1.403.419-2.45 1.926-2.45 3.726 0 2.114 1.467 3.852 3.266 3.852 1.319 0 2.469-.942 2.972-2.282C846.678-102.599 846.783-101.824 846.783-101.008z"></path></g><g><path fill="#11405C" d="M789.674-117.021c0 0-28.942 2.441-32.218 0-3.276-2.44 4.915-9.627 18.021-8.135C788.582-123.665 792.951-117.563 789.674-117.021zM782.212-101.008c0 4.69-3.224 8.478-7.181 8.478-3.956 0-7.18-3.788-7.18-8.478 0-4.689 3.225-8.498 7.18-8.498 1.11 0 2.156.292 3.099.857-1.403.419-2.45 1.926-2.45 3.726 0 2.114 1.467 3.852 3.266 3.852 1.319 0 2.469-.942 2.972-2.282C782.107-102.599 782.212-101.824 782.212-101.008z"></path></g><path fill="#11405C" d="M817.855-68.884c-0.548,0-1.078-0.28-1.375-0.786c-0.446-0.757-0.193-1.734,0.566-2.179
					c3.563-2.097,4.166-3.349,4.21-3.909c0.091-1.157-1.916-2.802-4.042-4.543c-1.289-1.057-2.754-2.256-4.132-3.64
					c-6.523-6.555-4.78-24.176-4.703-24.923c0.091-0.873,0.871-1.522,1.748-1.42c0.875,0.091,1.51,0.873,1.421,1.748
					c-0.482,4.672-0.74,17.795,3.79,22.347c1.263,1.269,2.601,2.364,3.895,3.423c2.905,2.383,5.417,4.44,5.199,7.253
					c-0.17,2.184-1.949,4.162-5.773,6.409C818.406-68.954,818.128-68.884,817.855-68.884z"></path></g><g><polygon fill="#FFC439" points="1288.142 231.118 1118.366 195.048 948.589 219.959 1115.376 277.474"></polygon><polygon fill="#DBA12C" points="1110.761 450.345 945.523 409.997 948.589 219.959 1115.961 255.572"></polygon><polygon fill="#CDEEFF" points="1212.174 214.978 1159.053 204.007 1008.592 231.742 1006.766 269.926 1027.675 276.388 1031.553 270.163 1033.583 278.988 1049.548 284.507 1050.08 243.614" opacity=".5"></polygon><polygon fill="#CDEEFF" points="1031.404 431.036 1031.499 401.389 1021.249 399.399 1018.992 403.021 1017.811 397.951 991 390.344 987.855 420.376" opacity=".5"></polygon><polygon fill="#FFC439" points="1288.142 231.118 1282.685 426.326 1110.761 450.345 1115.961 255.572"></polygon><path fill="#DBA12C" d="M1288.142,231.118l-172.181,24.454c0,0,53.719,6.321,89.394,0
				C1241.031,249.252,1288.142,231.118,1288.142,231.118z"></path></g><g><path fill="#D7A28E" d="M670.806,240.124l59.675,114.689l346.926,18.373l9.079,61.663c0,0-387.794,68.709-423.036,53.095
				c-35.242-15.615-131.18-181.665-131.18-181.665L670.806,240.124z"></path><path fill="#C18C7C" d="M690.833,407.131c-3.134-7.094,31.064-54.77,36.377-47.004
				C732.524,367.893,698.599,424.707,690.833,407.131z"></path><path fill="#D7A28E" d="M1122.338,326.875c9.105,4.468,4.544,13.728,4.544,13.728l-13.939,28.321l79.711,5.053
					c0,0,3.264,8.085-2.124,10.981c-2.465,1.325-41.783,2.85-41.783,2.85l53.227,3.41c0,0,2.279,9.154-3.18,10.153
					c-2.611,0.478-51.641,5.265-51.641,5.265l49.572,2.23c0,0-2.63,9.929-4.649,10.306c-10.408,1.944-47.914,5.293-47.914,5.293
					l36.243,0.211c0,0,1.108,8.885-6.499,9.03c-9.108,0.173-52.926,5.927-67.042,3.501c-18.491-3.178-73.331-4.239-73.331-4.239
					s-1.942-51.165-2.313-56.32c7.483,0.014,34.187-0.297,34.187-0.297C1085.275,365.077,1095.769,344.592,1122.338,326.875z"></path><path fill="#C18C7C" d="M1141.317 387.051c-.035.839 5.186 1.739 11.662 2.012 6.475.273 11.754-.185 11.789-1.023.036-.839-5.186-1.739-11.662-2.012C1146.63 385.754 1141.353 386.212 1141.317 387.051zM1138.742 406.131c.003.839 4.938 1.503 11.024 1.483 6.085-.02 11.016-.715 11.013-1.555-.003-.839-4.938-1.503-11.024-1.483C1143.67 404.596 1138.739 405.292 1138.742 406.131zM1134.844 423.76c-.021.839 4.062 1.624 9.119 1.755 5.057.131 9.176-.443 9.198-1.282.021-.839-4.061-1.624-9.12-1.755C1138.984 422.347 1134.866 422.921 1134.844 423.76z"></path><path fill="#C18C7C" d="M1135.85 416.38c-.855.309-.418 2.967-.906 5.856-.417 2.919-1.652 5.159-1.08 5.755.526.687 3.465-1.306 4.081-5.283C1138.537 418.734 1136.522 416.041 1135.85 416.38zM1139.37 399.773c-.854.309-.417 2.967-.906 5.856-.416 2.919-1.652 5.158-1.079 5.755.526.687 3.465-1.306 4.081-5.283C1142.058 402.127 1140.043 399.433 1139.37 399.773zM1141.95 381.779c-.854.31-.418 2.967-.906 5.856-.416 2.919-1.653 5.159-1.08 5.755.526.687 3.465-1.306 4.081-5.283C1144.637 384.133 1142.621 381.44 1141.95 381.779z"></path></g><path fill="#FFC439" d="M643.454,44.984c0,0,53.925,159.023,81.1,260.372c2.118,7.899-106.016,85.372-151.561,97.977
			c-52.498-49.661-75.489-221.202-75.489-221.202s1.562-61.099,19.824-85.228C545.018,60.318,643.454,44.984,643.454,44.984z"></path></g><g><polygon fill="#91C4F6" points="1659.944 1815.699 1351.192 1760.657 1410.09 1315.51 1680.049 1339.015"></polygon><polygon fill="#549BEC" points="1680.049 1339.015 1692.307 1349.514 1701.287 1340.865 1725.595 1786.952 1701.707 1792.412 1659.944 1815.699"></polygon><ellipse cx="1470.865" cy="1385.928" fill="#549BEC" rx="8.338" ry="11.673"></ellipse><path fill="#549BEC" d="M1583.809,1390.982c0,6.252-3.62,11.32-8.085,11.32c-4.466,0-8.086-5.068-8.086-11.32
			s3.62-11.32,8.086-11.32C1580.189,1379.662,1583.809,1384.73,1583.809,1390.982z"></path><path fill="#CDEEFF" d="M1466.252,1385.644c-3.098,18.194-6.194,36.388-9.292,54.583c-2.661,15.63-6.103,31.403-6.675,47.29
				c-1.03,28.567,12.811,52.688,39.247,64.389c13.411,5.936,28.241,8.04,42.822,7.873c10.922-0.125,23.772-1.071,30.695-10.77
				c7.848-10.995,0.016-22.053-7.707-30.565c-9.035-9.959-30.213-18.272-29.392-33.689c0.562-10.558,8.752-18.514,15.522-25.72
				c5.57-5.929,10.849-12.09,15.692-18.629c8.725-11.779,22.8-29.517,21.06-45.139c-0.449-4.036-6.834-4.081-6.38,0
				c1.477,13.261-11,29.163-18.439,39.519c-7.817,10.882-17.855,19.74-25.874,30.379c-6.034,8.005-10.22,18.513-6.667,28.479
				c3.554,9.969,13.7,14.94,21.404,21.206c5.422,4.408,10.668,9.64,14.462,15.531c6.342,9.846,1.179,18.411-9.27,21.5
				c-13.071,3.864-30.21,1.758-43.122-1.586c-29.508-7.642-48.406-30.49-47.729-61.288c0.36-16.36,4.046-32.654,6.784-48.737
				c3.004-17.643,6.007-35.286,9.01-52.929C1473.087,1383.324,1466.941,1381.598,1466.252,1385.644L1466.252,1385.644z"></path><polygon fill="#009444" points="1200.61 1781.603 1448.464 1737.417 1401.182 1380.072 1184.471 1398.941"></polygon><polygon fill="#097C3A" points="1184.471 1398.941 1174.63 1407.369 1167.422 1400.426 1147.908 1758.525 1167.085 1762.908 1200.61 1781.603"></polygon><path fill="#097C3A" d="M1345.701 1436.6c0 5.175 2.997 9.371 6.693 9.371 3.697 0 6.693-4.196 6.693-9.371 0-5.175-2.996-9.371-6.693-9.371C1348.698 1427.23 1345.701 1431.425 1345.701 1436.6zM1261.728 1440.657c0 5.019 2.906 9.087 6.491 9.087 3.585 0 6.491-4.068 6.491-9.087 0-5.018-2.906-9.087-6.491-9.087C1264.634 1431.57 1261.728 1435.639 1261.728 1440.657z"></path><path fill="#CDEEFF" d="M1356.099,1436.372c2.486,14.606,4.972,29.212,7.458,43.817c2.136,12.547,4.899,25.209,5.358,37.963
				c0.827,22.932-10.284,42.295-31.506,51.688c-10.766,4.765-22.671,6.454-34.376,6.32c-8.767-0.1-19.083-0.859-24.64-8.646
				c-6.3-8.825-0.012-17.704,6.187-24.536c7.253-7.995,24.254-14.667,23.594-27.044c-0.451-8.475-7.025-14.862-12.46-20.647
				c-4.471-4.759-8.708-9.704-12.597-14.954c-7.004-9.456-18.302-23.695-16.906-36.236c0.36-3.24,5.486-3.276,5.121,0
				c-1.185,10.645,8.831,23.411,14.802,31.724c6.275,8.735,14.333,15.847,20.771,24.387c4.844,6.426,8.204,14.861,5.353,22.861
				c-2.854,8.003-10.998,11.993-17.183,17.023c-4.352,3.539-8.563,7.739-11.609,12.468c-5.091,7.904-0.946,14.779,7.442,17.259
				c10.493,3.102,24.251,1.411,34.616-1.274c23.688-6.134,38.859-24.476,38.315-49.199c-0.289-13.134-3.248-26.214-5.446-39.124
				c-2.411-14.163-4.822-28.326-7.233-42.489C1350.611,1434.51,1355.546,1433.124,1356.099,1436.372L1356.099,1436.372z"></path><g><polygon fill="#FFC439" points="936.352 1571.421 1156.958 1524.552 1377.563 1556.921 1160.842 1631.654"></polygon><polygon fill="#DBA12C" points="1166.839 1856.28 1381.546 1803.852 1377.563 1556.921 1160.083 1603.196"></polygon><polygon fill="#CDEEFF" points="1035.065 1550.449 1104.089 1536.194 1299.595 1572.231 1301.969 1621.847 1274.799 1630.244 1269.76 1622.155 1267.123 1633.622 1246.379 1640.794 1245.687 1587.657" opacity=".5"></polygon><polygon fill="#CDEEFF" points="1269.955 1831.191 1269.831 1792.668 1283.149 1790.082 1286.082 1794.788 1287.616 1788.201 1322.455 1778.317 1326.542 1817.339" opacity=".5"></polygon><polygon fill="#FFC439" points="936.352 1571.421 943.443 1825.07 1166.839 1856.28 1160.083 1603.196"></polygon><path fill="#DBA12C" d="M936.352,1571.421l223.73,31.775c0,0-69.802,8.213-116.158,0
				C997.569,1594.984,936.352,1571.421,936.352,1571.421z"></path><polygon fill="#FFC439" points="1245.687 1630.891 1420.237 1593.807 1594.786 1619.418 1423.31 1678.55"></polygon><polygon fill="#DBA12C" points="1428.055 1856.28 1597.937 1814.798 1594.786 1619.418 1422.708 1656.032"></polygon><polygon fill="#CDEEFF" points="1323.791 1614.298 1378.405 1603.019 1533.095 1631.532 1534.973 1670.79 1513.476 1677.434 1509.489 1671.033 1507.402 1680.106 1490.988 1685.781 1490.442 1643.738" opacity=".5"></polygon><polygon fill="#CDEEFF" points="1509.643 1836.428 1509.544 1805.949 1520.083 1803.902 1522.403 1807.626 1523.617 1802.414 1551.182 1794.594 1554.416 1825.469" opacity=".5"></polygon><polygon fill="#FFC439" points="1245.687 1630.891 1251.297 1831.586 1428.055 1856.28 1422.708 1656.032"></polygon><path fill="#DBA12C" d="M1245.687,1630.891l177.022,25.141c0,0-55.229,6.498-91.907,0
				C1294.123,1649.534,1245.687,1630.891,1245.687,1630.891z"></path></g></g></svg>